<svg xmlns="http://www.w3.org/2000/svg" viewBox="0 0 488 244" width="488" height="244">
  <rect width="100%" height="100%" fill="#1a1a1a" rx="10" ry="10"/>
  <g transform="translate(40, 40)">
    <rect x="36" y="0" width="12" height="24" fill="#00ffff" /><rect x="48" y="0" width="12" height="24" fill="#00ffff" /><rect x="60" y="0" width="12" height="24" fill="#00ffff" /><rect x="72" y="0" width="12" height="24" fill="#00ffff" /><rect x="84" y="0" width="12" height="24" fill="#00ffff" /><rect x="100" y="10" width="4" height="16" fill="#00ffff" /><rect x="96" y="10" width="10" height="4" fill="#00ffff" /><rect x="120" y="0" width="12" height="24" fill="#00ffff" /><rect x="132" y="0" width="12" height="24" fill="#00ffff" /><rect x="144" y="0" width="12" height="24" fill="#00ffff" /><rect x="156" y="0" width="12" height="24" fill="#00ffff" /><rect x="168" y="0" width="12" height="24" fill="#00ffff" /><rect x="180" y="0" width="12" height="24" fill="#00ffff" /><rect x="196" y="10" width="4" height="16" fill="#00ffff" /><rect x="192" y="10" width="10" height="4" fill="#00ffff" /><rect x="216" y="0" width="12" height="24" fill="#00ffff" /><rect x="228" y="0" width="12" height="24" fill="#00ffff" /><rect x="240" y="0" width="12" height="24" fill="#00ffff" /><rect x="252" y="0" width="12" height="24" fill="#00ffff" /><rect x="264" y="0" width="12" height="24" fill="#00ffff" /><rect x="276" y="0" width="12" height="24" fill="#00ffff" /><rect x="288" y="0" width="12" height="24" fill="#00ffff" /><rect x="304" y="10" width="4" height="16" fill="#00ffff" /><rect x="300" y="10" width="10" height="4" fill="#00ffff" /><rect x="312" y="0" width="12" height="24" fill="#00ffff" /><rect x="324" y="0" width="12" height="24" fill="#00ffff" /><rect x="340" y="10" width="4" height="16" fill="#00ffff" /><rect x="336" y="10" width="10" height="4" fill="#00ffff" /><rect x="372" y="0" width="12" height="24" fill="#00ffff" /><rect x="384" y="0" width="12" height="24" fill="#00ffff" /><rect x="400" y="10" width="4" height="16" fill="#00ffff" /><rect x="396" y="10" width="10" height="4" fill="#00ffff" /><rect x="24" y="24" width="12" height="24" fill="#00ffff" /><rect x="36" y="24" width="12" height="24" fill="#00ffff" /><rect x="52" y="34" width="4" height="16" fill="#00ffff" /><rect x="52" y="34" width="10" height="4" fill="#00ffff" /><rect x="60" y="34" width="12" height="4" fill="#00ffff" /><rect x="72" y="34" width="12" height="4" fill="#00ffff" /><rect x="84" y="24" width="12" height="24" fill="#00ffff" /><rect x="96" y="24" width="12" height="24" fill="#00ffff" /><rect x="112" y="34" width="4" height="16" fill="#00ffff" /><rect x="108" y="34" width="10" height="4" fill="#00ffff" /><rect x="120" y="24" width="12" height="24" fill="#00ffff" /><rect x="132" y="24" width="12" height="24" fill="#00ffff" /><rect x="148" y="34" width="4" height="16" fill="#00ffff" /><rect x="148" y="34" width="10" height="4" fill="#00ffff" /><rect x="156" y="34" width="12" height="4" fill="#00ffff" /><rect x="168" y="34" width="12" height="4" fill="#00ffff" /><rect x="180" y="24" width="12" height="24" fill="#00ffff" /><rect x="192" y="24" width="12" height="24" fill="#00ffff" /><rect x="208" y="34" width="4" height="16" fill="#00ffff" /><rect x="204" y="34" width="10" height="4" fill="#00ffff" /><rect x="216" y="24" width="12" height="24" fill="#00ffff" /><rect x="228" y="24" width="12" height="24" fill="#00ffff" /><rect x="244" y="34" width="4" height="16" fill="#00ffff" /><rect x="244" y="34" width="10" height="4" fill="#00ffff" /><rect x="252" y="34" width="12" height="4" fill="#00ffff" /><rect x="264" y="34" width="12" height="4" fill="#00ffff" /><rect x="276" y="34" width="12" height="4" fill="#00ffff" /><rect x="288" y="34" width="12" height="4" fill="#00ffff" /><rect x="304" y="24" width="4" height="16" fill="#00ffff" /><rect x="300" y="34" width="10" height="4" fill="#00ffff" /><rect x="316" y="24" width="4" height="16" fill="#00ffff" /><rect x="316" y="34" width="10" height="4" fill="#00ffff" /><rect x="324" y="24" width="12" height="24" fill="#00ffff" /><rect x="336" y="24" width="12" height="24" fill="#00ffff" /><rect x="352" y="34" width="4" height="16" fill="#00ffff" /><rect x="348" y="34" width="10" height="4" fill="#00ffff" /><rect x="360" y="24" width="12" height="24" fill="#00ffff" /><rect x="372" y="24" width="12" height="24" fill="#00ffff" /><rect x="388" y="34" width="4" height="16" fill="#00ffff" /><rect x="388" y="34" width="10" height="4" fill="#00ffff" /><rect x="400" y="24" width="4" height="16" fill="#00ffff" /><rect x="396" y="34" width="10" height="4" fill="#00ffff" /><rect x="24" y="48" width="12" height="24" fill="#00ffff" /><rect x="36" y="48" width="12" height="24" fill="#00ffff" /><rect x="48" y="48" width="12" height="24" fill="#00ffff" /><rect x="60" y="48" width="12" height="24" fill="#00ffff" /><rect x="72" y="48" width="12" height="24" fill="#00ffff" /><rect x="84" y="48" width="12" height="24" fill="#00ffff" /><rect x="96" y="48" width="12" height="24" fill="#00ffff" /><rect x="112" y="48" width="4" height="24" fill="#00ffff" /><rect x="120" y="48" width="12" height="24" fill="#00ffff" /><rect x="132" y="48" width="12" height="24" fill="#00ffff" /><rect x="144" y="48" width="12" height="24" fill="#00ffff" /><rect x="156" y="48" width="12" height="24" fill="#00ffff" /><rect x="168" y="48" width="12" height="24" fill="#00ffff" /><rect x="180" y="48" width="12" height="24" fill="#00ffff" /><rect x="196" y="58" width="4" height="16" fill="#00ffff" /><rect x="196" y="58" width="10" height="4" fill="#00ffff" /><rect x="208" y="48" width="4" height="16" fill="#00ffff" /><rect x="204" y="58" width="10" height="4" fill="#00ffff" /><rect x="216" y="48" width="12" height="24" fill="#00ffff" /><rect x="228" y="48" width="12" height="24" fill="#00ffff" /><rect x="240" y="48" width="12" height="24" fill="#00ffff" /><rect x="252" y="48" width="12" height="24" fill="#00ffff" /><rect x="264" y="48" width="12" height="24" fill="#00ffff" /><rect x="280" y="58" width="4" height="16" fill="#00ffff" /><rect x="276" y="58" width="10" height="4" fill="#00ffff" /><rect x="328" y="48" width="4" height="16" fill="#00ffff" /><rect x="328" y="58" width="10" height="4" fill="#00ffff" /><rect x="336" y="48" width="12" height="24" fill="#00ffff" /><rect x="348" y="48" width="12" height="24" fill="#00ffff" /><rect x="360" y="48" width="12" height="24" fill="#00ffff" /><rect x="376" y="58" width="4" height="16" fill="#00ffff" /><rect x="376" y="58" width="10" height="4" fill="#00ffff" /><rect x="388" y="48" width="4" height="16" fill="#00ffff" /><rect x="384" y="58" width="10" height="4" fill="#00ffff" /><rect x="24" y="72" width="12" height="24" fill="#00ffff" /><rect x="36" y="72" width="12" height="24" fill="#00ffff" /><rect x="52" y="82" width="4" height="16" fill="#00ffff" /><rect x="52" y="82" width="10" height="4" fill="#00ffff" /><rect x="60" y="82" width="12" height="4" fill="#00ffff" /><rect x="72" y="82" width="12" height="4" fill="#00ffff" /><rect x="84" y="72" width="12" height="24" fill="#00ffff" /><rect x="96" y="72" width="12" height="24" fill="#00ffff" /><rect x="112" y="72" width="4" height="24" fill="#00ffff" /><rect x="120" y="72" width="12" height="24" fill="#00ffff" /><rect x="132" y="72" width="12" height="24" fill="#00ffff" /><rect x="148" y="82" width="4" height="16" fill="#00ffff" /><rect x="148" y="82" width="10" height="4" fill="#00ffff" /><rect x="156" y="82" width="12" height="4" fill="#00ffff" /><rect x="168" y="82" width="12" height="4" fill="#00ffff" /><rect x="180" y="82" width="12" height="4" fill="#00ffff" /><rect x="196" y="72" width="4" height="16" fill="#00ffff" /><rect x="192" y="82" width="10" height="4" fill="#00ffff" /><rect x="216" y="72" width="12" height="24" fill="#00ffff" /><rect x="228" y="72" width="12" height="24" fill="#00ffff" /><rect x="244" y="82" width="4" height="16" fill="#00ffff" /><rect x="244" y="82" width="10" height="4" fill="#00ffff" /><rect x="252" y="82" width="12" height="4" fill="#00ffff" /><rect x="264" y="82" width="12" height="4" fill="#00ffff" /><rect x="280" y="72" width="4" height="16" fill="#00ffff" /><rect x="276" y="82" width="10" height="4" fill="#00ffff" /><rect x="324" y="72" width="12" height="24" fill="#00ffff" /><rect x="336" y="72" width="12" height="24" fill="#00ffff" /><rect x="352" y="82" width="4" height="16" fill="#00ffff" /><rect x="352" y="82" width="10" height="4" fill="#00ffff" /><rect x="360" y="72" width="12" height="24" fill="#00ffff" /><rect x="372" y="72" width="12" height="24" fill="#00ffff" /><rect x="388" y="82" width="4" height="16" fill="#00ffff" /><rect x="384" y="82" width="10" height="4" fill="#00ffff" /><rect x="24" y="96" width="12" height="24" fill="#00ffff" /><rect x="36" y="96" width="12" height="24" fill="#00ffff" /><rect x="52" y="96" width="4" height="24" fill="#00ffff" /><rect x="84" y="96" width="12" height="24" fill="#00ffff" /><rect x="96" y="96" width="12" height="24" fill="#00ffff" /><rect x="112" y="96" width="4" height="24" fill="#00ffff" /><rect x="120" y="96" width="12" height="24" fill="#00ffff" /><rect x="132" y="96" width="12" height="24" fill="#00ffff" /><rect x="148" y="96" width="4" height="24" fill="#00ffff" /><rect x="216" y="96" width="12" height="24" fill="#00ffff" /><rect x="228" y="96" width="12" height="24" fill="#00ffff" /><rect x="240" y="96" width="12" height="24" fill="#00ffff" /><rect x="252" y="96" width="12" height="24" fill="#00ffff" /><rect x="264" y="96" width="12" height="24" fill="#00ffff" /><rect x="276" y="96" width="12" height="24" fill="#00ffff" /><rect x="288" y="96" width="12" height="24" fill="#00ffff" /><rect x="304" y="106" width="4" height="16" fill="#00ffff" /><rect x="300" y="106" width="10" height="4" fill="#00ffff" /><rect x="312" y="96" width="12" height="24" fill="#00ffff" /><rect x="324" y="96" width="12" height="24" fill="#00ffff" /><rect x="340" y="106" width="4" height="16" fill="#00ffff" /><rect x="340" y="106" width="10" height="4" fill="#00ffff" /><rect x="352" y="96" width="4" height="16" fill="#00ffff" /><rect x="348" y="106" width="10" height="4" fill="#00ffff" /><rect x="372" y="96" width="12" height="24" fill="#00ffff" /><rect x="384" y="96" width="12" height="24" fill="#00ffff" /><rect x="400" y="106" width="4" height="16" fill="#00ffff" /><rect x="396" y="106" width="10" height="4" fill="#00ffff" /><rect x="28" y="120" width="4" height="16" fill="#00ffff" /><rect x="28" y="130" width="10" height="4" fill="#00ffff" /><rect x="36" y="130" width="12" height="4" fill="#00ffff" /><rect x="52" y="120" width="4" height="16" fill="#00ffff" /><rect x="48" y="130" width="10" height="4" fill="#00ffff" /><rect x="88" y="120" width="4" height="16" fill="#00ffff" /><rect x="88" y="130" width="10" height="4" fill="#00ffff" /><rect x="96" y="130" width="12" height="4" fill="#00ffff" /><rect x="112" y="120" width="4" height="16" fill="#00ffff" /><rect x="108" y="130" width="10" height="4" fill="#00ffff" /><rect x="124" y="120" width="4" height="16" fill="#00ffff" /><rect x="124" y="130" width="10" height="4" fill="#00ffff" /><rect x="132" y="130" width="12" height="4" fill="#00ffff" /><rect x="148" y="120" width="4" height="16" fill="#00ffff" /><rect x="144" y="130" width="10" height="4" fill="#00ffff" /><rect x="220" y="120" width="4" height="16" fill="#00ffff" /><rect x="220" y="130" width="10" height="4" fill="#00ffff" /><rect x="228" y="130" width="12" height="4" fill="#00ffff" /><rect x="240" y="130" width="12" height="4" fill="#00ffff" /><rect x="252" y="130" width="12" height="4" fill="#00ffff" /><rect x="264" y="130" width="12" height="4" fill="#00ffff" /><rect x="276" y="130" width="12" height="4" fill="#00ffff" /><rect x="288" y="130" width="12" height="4" fill="#00ffff" /><rect x="304" y="120" width="4" height="16" fill="#00ffff" /><rect x="300" y="130" width="10" height="4" fill="#00ffff" /><rect x="316" y="120" width="4" height="16" fill="#00ffff" /><rect x="316" y="130" width="10" height="4" fill="#00ffff" /><rect x="324" y="130" width="12" height="4" fill="#00ffff" /><rect x="340" y="120" width="4" height="16" fill="#00ffff" /><rect x="336" y="130" width="10" height="4" fill="#00ffff" /><rect x="376" y="120" width="4" height="16" fill="#00ffff" /><rect x="376" y="130" width="10" height="4" fill="#00ffff" /><rect x="384" y="130" width="12" height="4" fill="#00ffff" /><rect x="400" y="120" width="4" height="16" fill="#00ffff" /><rect x="396" y="130" width="10" height="4" fill="#00ffff" />
  </g>
  <text x="50%" y="219" text-anchor="middle" font-family="'Courier New', monospace" font-weight="bold" font-size="20px" fill="#888888">
    Autonomous Product Engineering eXecutor
  </text>
</svg>